<?xml version="1.0" encoding="UTF-8"?>
<!DOCTYPE svg PUBLIC "-//W3C//DTD SVG 1.1//EN" "http://www.w3.org/Graphics/SVG/1.1/DTD/svg11.dtd">
<!-- Creator: CorelDRAW 2018 (64 Bit Versão de avaliação) -->
<svg xmlns="http://www.w3.org/2000/svg" xml:space="preserve" width="314.005mm" height="346.015mm" version="1.1" style="shape-rendering:geometricPrecision; text-rendering:geometricPrecision; image-rendering:optimizeQuality; fill-rule:evenodd; clip-rule:evenodd"
viewBox="0 0 53.6902 59.1632"
 xmlns:xlink="http://www.w3.org/1999/xlink">
 <defs>
  <style type="text/css">
   <![CDATA[
    .str2 {stroke:#DB3D43;stroke-width:1.4763;stroke-miterlimit:10}
    .str0 {stroke:#FEFEFE;stroke-width:0.3702;stroke-linecap:round;stroke-linejoin:round;stroke-miterlimit:22.9256}
    .str1 {stroke:#FEFEFE;stroke-width:0.2961;stroke-linecap:round;stroke-linejoin:round;stroke-miterlimit:22.9256}
    .fil0 {fill:none;fill-rule:nonzero}
    .fil2 {fill:#DB383C}
    .fil4 {fill:#FEFEFE;fill-rule:nonzero}
    .fil1 {fill:url(#id0)}
    .fil3 {fill:url(#id1)}
   ]]>
  </style>
  <linearGradient id="id0" gradientUnits="userSpaceOnUse" x1="26.4697" y1="53.0255" x2="26.4697" y2="44.8116">
   <stop offset="0" style="stop-opacity:1; stop-color:#7B3334"/>
   <stop offset="1" style="stop-opacity:1; stop-color:#DB383C"/>
  </linearGradient>
  <linearGradient id="id1" gradientUnits="userSpaceOnUse" x1="0.7381" y1="23.7675" x2="52.952" y2="23.7675">
   <stop offset="0" style="stop-opacity:1; stop-color:#0093CB"/>
   <stop offset="1" style="stop-opacity:1; stop-color:#1865AA"/>
  </linearGradient>
 </defs>
 <g id="__x0023_Layer_x0020_1">
  <metadata id="CorelCorpID_0Corel-Layer"/>
  <polygon class="fil0 str0" points="42.1799,47.8564 41.5564,49.0334 43.3419,49.0334 44.4944,47.8564 "/>
  <line class="fil0 str0" x1="39.6481" y1="50.2849" x2="39.4781" y2= "51.6328" />
  <path class="fil0 str0" d="M39.4781 51.6328c0.4723,-0.1925 0.8864,-0.3317 1.2423,-0.4172 0.3558,-0.0857 0.6597,-0.1284 0.9116,-0.1284 0.3715,0 0.6267,0.0498 0.7653,0.1498 0.0882,0.0641 0.1324,0.1533 0.1324,0.2674 0,0.1713 -0.3181,0.3317 -0.9543,0.4813 -0.8943,0.2141 -1.4895,0.396 -1.7855,0.5456 -0.6424,0.328 -0.9636,0.7918 -0.9636,1.3909 0,0.435 0.1732,0.7879 0.5196,1.0591 0.4094,0.3208 1.0298,0.4814 1.861,0.4814 0.1513,0 0.3024,0 0.4536,0 0.1384,-0.0214 0.2425,-0.0357 0.3117,-0.0429"/>
  <line class="fil0 str0" x1="41.972" y1="55.4199" x2="42.2461" y2= "54.2433" />
  <path class="fil0 str0" d="M42.2461 54.2433c-0.1324,0.0355 -0.244,0.0588 -0.3355,0.0695 -0.0913,0.0106 -0.1652,0.0159 -0.2219,0.0159 -0.4285,0 -0.6424,-0.1425 -0.6424,-0.4279 0,-0.2639 0.1952,-0.4528 0.5856,-0.567 0.611,-0.1782 0.9636,-0.296 1.0582,-0.353"/>
  <polyline class="fil0 str0" points="42.6901,52.9808 42.6901,55.3344 44.7958,51.0484 "/>
  <path class="fil0 str0" d="M44.7958 51.0484c-0.0682,-0.2735 -0.2569,-0.5101 -0.5658,-0.7101 -0.4536,-0.2925 -1.0833,-0.4385 -1.8895,-0.4385 -0.3906,0 -0.7921,0.0286 -1.2045,0.0855 -0.4125,0.0571 -0.9086,0.157 -1.488,0.2995"/>
  <polyline class="fil0 str0" points="33.9761,50.7878 33.9761,50.028 32.0207,50.028 32.0207,55.3344 34.1556,55.3344 34.1556,52.8951 "/>
  <path class="fil0 str0" d="M34.1556 52.8951c0,-0.4422 0.1324,-0.7951 0.3968,-1.059 0.2331,-0.2355 0.5039,-0.3531 0.8125,-0.3531 0.252,0 0.4693,0.0927 0.6518,0.2782 0.1827,0.1855 0.2741,0.4493 0.2741,0.7915"/>
  <polyline class="fil0 str0" points="36.2908,52.5528 36.2908,55.3344 38.4353,55.3344 38.4353,51.3761 "/>
  <path class="fil0 str0" d="M38.4353 51.3761c0,-0.5421 -0.2047,-0.9519 -0.614,-1.2303 -0.3528,-0.2425 -0.8126,-0.3638 -1.3793,-0.3638 -0.5102,0 -0.9983,0.0927 -1.4645,0.278 -0.4659,0.1857 -0.7997,0.428 -1.0014,0.7277"/>
  <line class="fil0 str0" x1="26.1598" y1="50.2849" x2="25.9896" y2= "51.6328" />
  <path class="fil0 str0" d="M25.9896 51.6328c0.4726,-0.1925 0.8865,-0.3317 1.2425,-0.4172 0.3558,-0.0857 0.6599,-0.1284 0.9118,-0.1284 0.3715,0 0.6266,0.0498 0.7652,0.1498 0.0881,0.0641 0.1322,0.1533 0.1322,0.2674 0,0.1713 -0.3181,0.3317 -0.9541,0.4813 -0.8945,0.2141 -1.4897,0.396 -1.7855,0.5456 -0.6426,0.328 -0.9638,0.7918 -0.9638,1.3909 0,0.435 0.1733,0.7879 0.5195,1.0591 0.4095,0.3208 1.0298,0.4814 1.8612,0.4814 0.1511,0 0.3024,0 0.4534,0 0.1387,-0.0214 0.2425,-0.0357 0.3117,-0.0429"/>
  <line class="fil0 str0" x1="28.4837" y1="55.4199" x2="28.7578" y2= "54.2433" />
  <path class="fil0 str0" d="M28.7578 54.2433c-0.1324,0.0355 -0.2439,0.0588 -0.3353,0.0695 -0.0914,0.0106 -0.1654,0.0159 -0.222,0.0159 -0.4283,0 -0.6424,-0.1425 -0.6424,-0.4279 0,-0.2639 0.1952,-0.4528 0.5858,-0.567 0.6108,-0.1782 0.9636,-0.296 1.058,-0.353"/>
  <polyline class="fil0 str0" points="29.2018,52.9808 29.2018,55.3344 31.3368,55.3344 31.3368,51.2905 "/>
  <path class="fil0 str0" d="M31.3368 51.2905c0,-0.378 -0.1984,-0.6954 -0.5951,-0.9522 -0.4534,-0.2925 -1.0833,-0.4385 -1.8893,-0.4385 -0.3906,0 -0.7922,0.0286 -1.2045,0.0855 -0.4126,0.0571 -0.9087,0.157 -1.4881,0.2995"/>
  <polyline class="fil0 str0" points="23.3504,50.6165 23.3504,50.028 21.3004,50.028 21.3004,55.3344 23.4451,55.3344 23.4451,52.8951 "/>
  <path class="fil0 str0" d="M23.4451 52.8951c0,-0.4706 0.0847,-0.813 0.255,-1.027 0.2015,-0.2568 0.5478,-0.3852 1.0391,-0.3852 0.1889,0 0.4061,0.0214 0.6518,0.0643"/>
  <polyline class="fil0 str0" points="25.391,51.5473 25.221,49.857 24.8903,49.8248 "/>
  <path class="fil0 str0" d="M24.8903 49.8248c-0.3463,0 -0.6706,0.0964 -0.973,0.2892 -0.2142,0.1352 -0.4031,0.303 -0.5669,0.5026"/>
  <line class="fil0 str0" x1="15.534" y1="50.2849" x2="15.3641" y2= "51.6328" />
  <path class="fil0 str0" d="M15.3641 51.6328c0.4722,-0.1925 0.8865,-0.3317 1.2421,-0.4172 0.3559,-0.0857 0.6598,-0.1284 0.9117,-0.1284 0.3717,0 0.6267,0.0498 0.7652,0.1498 0.0881,0.0641 0.1322,0.1533 0.1322,0.2674 0,0.1713 -0.3179,0.3317 -0.9541,0.4813 -0.8943,0.2141 -1.4896,0.396 -1.7855,0.5456 -0.6424,0.328 -0.9636,0.7918 -0.9636,1.3909 0,0.435 0.1731,0.7879 0.5196,1.0591 0.4094,0.3208 1.0297,0.4814 1.8612,0.4814 0.1509,0 0.3022,0 0.4534,0 0.1386,-0.0214 0.2425,-0.0357 0.3117,-0.0429"/>
  <line class="fil0 str0" x1="17.8581" y1="55.4199" x2="18.1319" y2= "54.2433" />
  <path class="fil0 str0" d="M18.1319 54.2433c-0.1322,0.0355 -0.2439,0.0588 -0.3352,0.0695 -0.0914,0.0106 -0.1655,0.0159 -0.2222,0.0159 -0.4283,0 -0.6424,-0.1425 -0.6424,-0.4279 0,-0.2639 0.1954,-0.4528 0.5858,-0.567 0.611,-0.1782 0.9636,-0.296 1.058,-0.353"/>
  <polyline class="fil0 str0" points="18.576,52.9808 18.576,55.3344 20.7111,55.3344 20.7111,51.2905 "/>
  <path class="fil0 str0" d="M20.7111 51.2905c0,-0.378 -0.1984,-0.6954 -0.5953,-0.9522 -0.4534,-0.2925 -1.0832,-0.4385 -1.8893,-0.4385 -0.3906,0 -0.7921,0.0286 -1.2046,0.0855 -0.4126,0.0571 -0.9084,0.157 -1.488,0.2995"/>
  <polyline class="fil0 str0" points="10.7693,51.205 10.7693,49.6858 11.9216,49.6858 "/>
  <path class="fil0 str0" d="M11.9216 49.6858c0.2015,0 0.3669,0.0733 0.496,0.2193 0.1293,0.1463 0.1939,0.3191 0.1939,0.5191 0,0.2138 -0.0851,0.3974 -0.2552,0.5507 -0.1701,0.1534 -0.4251,0.2301 -0.7652,0.2301"/>
  <polyline class="fil0 str0" points="11.591,51.205 10.9713,51.205 10.7693,51.205 "/>
  <polyline class="fil0 str0" points="8.4451,48.1774 8.4451,55.3344 10.7693,55.3344 10.7693,52.6277 12.2807,52.6277 "/>
  <path class="fil0 str0" d="M12.2807 52.6277c0.8313,0 1.4894,-0.2425 1.9744,-0.7275 0.4409,-0.4422 0.6615,-0.977 0.6615,-1.6046 0,-0.5848 -0.189,-1.0733 -0.5669,-1.4656 -0.422,-0.435 -0.9982,-0.6526 -1.7288,-0.6526"/>
  <line class="fil0 str0" x1="12.6208" y1="48.1774" x2="8.4451" y2= "48.1774" />
  <path class="fil1" d="M44.4943 47.8576l-2.3144 0 -0.6236 1.1769 1.7855 0 1.1525 -1.1769zm-5.1581 2.4895l0 0 -0.17 1.348c0.4723,-0.1925 0.8863,-0.3317 1.2423,-0.4172 0.3558,-0.0857 0.6597,-0.1284 0.9116,-0.1284 0.3715,0 0.6267,0.0498 0.7652,0.1498 0.0882,0.0642 0.1323,0.1533 0.1323,0.2674 0,0.1712 -0.318,0.3317 -0.9542,0.4813 -0.8943,0.2141 -1.4896,0.396 -1.7856,0.5456 -0.6424,0.328 -0.9636,0.7917 -0.9636,1.3909 0,0.435 0.1732,0.7879 0.5196,1.0591 0.4094,0.3207 1.0298,0.4814 1.8611,0.4814 0.1512,0 0.3023,0 0.4535,0 0.1384,-0.0214 0.2425,-0.0357 0.3117,-0.0429l0.2741 -1.1766c-0.1324,0.0355 -0.2441,0.0587 -0.3355,0.0695 -0.0913,0.0106 -0.1652,0.0159 -0.2219,0.0159 -0.4285,0 -0.6424,-0.1425 -0.6424,-0.4278 0,-0.2639 0.1952,-0.4528 0.5856,-0.567 0.611,-0.1782 0.9636,-0.296 1.0582,-0.3529l0 2.3535 2.1056 -4.286c-0.0683,-0.2734 -0.2569,-0.51 -0.5657,-0.71 -0.4536,-0.2925 -1.0833,-0.4385 -1.8895,-0.4385 -0.3905,0 -0.792,0.0285 -1.2045,0.0855 -0.4124,0.0571 -0.9085,0.1569 -1.4879,0.2995zm-5.3602 0.4419l0 0 0 -0.7597 -1.9555 0 0 5.3063 2.135 0 0 -2.4392c0,-0.4421 0.1323,-0.7951 0.3968,-1.059 0.2331,-0.2355 0.5039,-0.3531 0.8125,-0.3531 0.252,0 0.4693,0.0927 0.6518,0.2782 0.1827,0.1855 0.2741,0.4493 0.2741,0.7916l0 2.7815 2.1445 0 0 -3.9582c0,-0.5422 -0.2047,-0.9519 -0.614,-1.2303 -0.3528,-0.2425 -0.8125,-0.3638 -1.3792,-0.3638 -0.5102,0 -0.9984,0.0927 -1.4645,0.2781 -0.466,0.1856 -0.7997,0.428 -1.0014,0.7276zm-7.8164 -0.5029l0 0 -0.1701 1.348c0.4726,-0.1925 0.8865,-0.3317 1.2424,-0.4172 0.3558,-0.0857 0.6599,-0.1284 0.9117,-0.1284 0.3715,0 0.6266,0.0498 0.7653,0.1498 0.0881,0.0642 0.1322,0.1533 0.1322,0.2674 0,0.1712 -0.318,0.3317 -0.9541,0.4813 -0.8944,0.2141 -1.4897,0.396 -1.7855,0.5456 -0.6426,0.328 -0.9638,0.7917 -0.9638,1.3909 0,0.435 0.1733,0.7879 0.5196,1.0591 0.4094,0.3208 1.0298,0.4814 1.8612,0.4814 0.1511,0 0.3023,0 0.4534,0 0.1387,-0.0214 0.2425,-0.0357 0.3117,-0.0429l0.2741 -1.1766c-0.1324,0.0355 -0.2439,0.0587 -0.3354,0.0695 -0.0914,0.0106 -0.1654,0.0159 -0.222,0.0159 -0.4283,0 -0.6424,-0.1425 -0.6424,-0.4278 0,-0.2639 0.1952,-0.4528 0.5857,-0.567 0.6109,-0.1782 0.9636,-0.296 1.0581,-0.3529l0 2.3535 2.135 0 0 -4.0438c0,-0.378 -0.1984,-0.6955 -0.5951,-0.9522 -0.4534,-0.2925 -1.0833,-0.4385 -1.8893,-0.4385 -0.3906,0 -0.7923,0.0285 -1.2045,0.0855 -0.4126,0.0571 -0.9087,0.1569 -1.4881,0.2995zm-2.8093 0.3317l0 0 0 -0.5885 -2.0501 0 0 5.3063 2.1446 0 0 -2.4392c0,-0.4706 0.0848,-0.813 0.255,-1.027 0.2016,-0.2568 0.5479,-0.3852 1.0392,-0.3852 0.1888,0 0.4061,0.0214 0.6518,0.0643l-0.17 -1.6903 -0.3308 -0.0322c-0.3463,0 -0.6707,0.0964 -0.973,0.2892 -0.2143,0.1352 -0.4031,0.3029 -0.5669,0.5026zm-7.8164 -0.3317l0 0 -0.17 1.348c0.4723,-0.1925 0.8865,-0.3317 1.2422,-0.4172 0.356,-0.0857 0.6598,-0.1284 0.9117,-0.1284 0.3717,0 0.6267,0.0498 0.7652,0.1498 0.0881,0.0642 0.1322,0.1533 0.1322,0.2674 0,0.1712 -0.3179,0.3317 -0.9541,0.4813 -0.8943,0.2141 -1.4896,0.396 -1.7855,0.5456 -0.6424,0.328 -0.9636,0.7917 -0.9636,1.3909 0,0.435 0.1732,0.7879 0.5196,1.0591 0.4094,0.3208 1.0298,0.4814 1.8612,0.4814 0.1509,0 0.3022,0 0.4534,0 0.1386,-0.0214 0.2425,-0.0357 0.3117,-0.0429l0.2739 -1.1766c-0.1322,0.0355 -0.2439,0.0587 -0.3352,0.0695 -0.0914,0.0106 -0.1655,0.0159 -0.2222,0.0159 -0.4284,0 -0.6424,-0.1425 -0.6424,-0.4278 0,-0.2639 0.1954,-0.4528 0.5858,-0.567 0.611,-0.1782 0.9636,-0.296 1.058,-0.3529l0 2.3535 2.1352 0 0 -4.0438c0,-0.378 -0.1984,-0.6955 -0.5953,-0.9522 -0.4534,-0.2925 -1.0833,-0.4385 -1.8893,-0.4385 -0.3905,0 -0.792,0.0285 -1.2045,0.0855 -0.4127,0.0571 -0.9084,0.1569 -1.488,0.2995zm-4.7648 0.9201l0 0 0 -1.5192 1.1524 0c0.2015,0 0.3669,0.0733 0.4959,0.2193 0.1293,0.1463 0.1939,0.3192 0.1939,0.5191 0,0.2138 -0.085,0.3974 -0.2552,0.5507 -0.1701,0.1534 -0.4252,0.2301 -0.7653,0.2301l-0.6197 0 -0.2021 0zm-2.3241 -3.0275l0 0 0 7.1568 2.3241 0 0 -2.7066 1.5115 0c0.8313,0 1.4894,-0.2425 1.9743,-0.7275 0.4409,-0.4421 0.6615,-0.9769 0.6615,-1.6046 0,-0.5848 -0.189,-1.0732 -0.5668,-1.4656 -0.422,-0.435 -0.9982,-0.6526 -1.7289,-0.6526l-4.1757 0z"/>
  <path class="fil0 str1" d="M44.8261 58.0184c0,0.2969 -0.0979,0.5366 -0.2941,0.7189 -0.196,0.1825 -0.4513,0.2738 -0.7661,0.2738 -0.2047,0 -0.4221,-0.0467 -0.6518,-0.1402 -0.0749,-0.0309 -0.17,-0.0776 -0.2847,-0.14"/>
  <line class="fil0 str1" x1="42.8295" y1="58.7309" x2="43.1066" y2= "57.9588" />
  <path class="fil0 str1" d="M43.1066 57.9588c0.1075,0.0963 0.2104,0.1676 0.309,0.2143 0.0988,0.0466 0.1955,0.0701 0.2904,0.0701 0.0651,0 0.1181,-0.0149 0.1593,-0.0446 0.0411,-0.0297 0.0617,-0.0687 0.0617,-0.1168 0,-0.0677 -0.0862,-0.123 -0.2585,-0.1654 -0.2323,-0.0595 -0.3934,-0.1216 -0.4832,-0.1866 -0.1749,-0.1273 -0.2622,-0.3296 -0.2622,-0.6067 0,-0.2885 0.096,-0.5246 0.2884,-0.7084 0.1924,-0.1839 0.4421,-0.2755 0.7492,-0.2755 0.1474,0 0.2798,0.0182 0.3972,0.0551 0.1173,0.0365 0.2497,0.1017 0.397,0.195"/>
  <line class="fil0 str1" x1="44.755" y1="56.3893" x2="44.5076" y2= "57.0935" />
  <path class="fil0 str1" d="M44.5076 57.0935c-0.1573,-0.1414 -0.3233,-0.2121 -0.4982,-0.2121 -0.1347,0 -0.2022,0.0467 -0.2022,0.14 0,0.0651 0.0873,0.1201 0.2622,0.1654 0.2347,0.0622 0.3983,0.1287 0.4909,0.1995 0.1773,0.1357 0.2658,0.3464 0.2658,0.6321"/>
  <path class="fil0 str1" d="M41.3449 57.5686c0,-0.1641 -0.0405,-0.2975 -0.1217,-0.4009 -0.0811,-0.1033 -0.1841,-0.1549 -0.309,-0.1549 -0.1274,0 -0.233,0.053 -0.3166,0.1592 -0.0836,0.106 -0.1255,0.2398 -0.1255,0.4007 0,0.1613 0.0419,0.2935 0.1255,0.3968 0.0836,0.1032 0.1892,0.1549 0.3166,0.1549 0.1249,0 0.2279,-0.0517 0.309,-0.1549 0.0812,-0.1033 0.1217,-0.2368 0.1217,-0.4009z"/>
  <path class="fil0 str1" d="M42.2439 57.5727c0,0.4299 -0.1222,0.7778 -0.367,1.0438 -0.2447,0.2658 -0.5658,0.3987 -0.9627,0.3987 -0.3972,0 -0.7181,-0.1328 -0.9627,-0.3987 -0.2449,-0.266 -0.3672,-0.6139 -0.3672,-1.0438 0,-0.4326 0.1223,-0.7819 0.3672,-1.0477 0.2446,-0.2658 0.5655,-0.3987 0.9627,-0.3987 0.3969,0 0.7179,0.1329 0.9627,0.3987 0.2449,0.2658 0.367,0.6151 0.367,1.0477z"/>
  <path class="fil0 str1" d="M38.0436 57.5772c0,-0.1697 -0.0431,-0.302 -0.1293,-0.3968 -0.0862,-0.0947 -0.2055,-0.1421 -0.3577,-0.1421"/>
  <polyline class="fil0 str1" points="37.5566,57.0384 37.4553,57.0384 37.4553,58.1201 37.5378,58.1201 "/>
  <path class="fil0 str1" d="M37.5378 58.1201c0.1598,0 0.2841,-0.0474 0.3726,-0.1422 0.0889,-0.0947 0.1332,-0.2284 0.1332,-0.4007"/>
  <path class="fil0 str1" d="M38.9239 57.6025c0,0.4072 -0.1113,0.7338 -0.3335,0.98 -0.2223,0.246 -0.517,0.369 -0.8841,0.369"/>
  <polyline class="fil0 str1" points="37.7063,58.9515 36.5712,58.9515 36.5712,56.1773 37.4892,56.1773 "/>
  <path class="fil0 str1" d="M37.4892 56.1773c0.4618,0 0.8191,0.1298 1.0713,0.3902 0.2423,0.2489 0.3634,0.594 0.3634,1.035"/>
  <polygon class="fil0 str1" points="34.8733,57.942 34.6896,57.0425 34.5024,57.942 "/>
  <polygon class="fil0 str1" points="36.0421,58.9515 35.1129,58.9515 35.0232,58.5994 34.3525,58.5994 34.2625,58.9515 33.3372,58.9515 34.1838,56.1773 35.1916,56.1773 "/>
  <path class="fil0 str1" d="M32.8268 58.9133c-0.0773,0.0227 -0.1398,0.0382 -0.1872,0.0468 -0.1524,0.0339 -0.2735,0.051 -0.3634,0.051 -0.3647,0 -0.6693,-0.1345 -0.9141,-0.4031 -0.2447,-0.2686 -0.3671,-0.6037 -0.3671,-1.0054 0,-0.4072 0.123,-0.753 0.369,-1.0371 0.2462,-0.2842 0.5463,-0.4263 0.901,-0.4263 0.1249,0 0.2561,0.017 0.3934,0.0506 0.0449,0.0114 0.1011,0.0284 0.1685,0.051"/>
  <line class="fil0 str1" x1="32.8268" y1="56.2408" x2="32.8268" y2= "57.2336" />
  <path class="fil0 str1" d="M32.8268 57.2336c-0.1449,-0.1414 -0.2909,-0.2122 -0.4383,-0.2122 -0.1398,0 -0.2566,0.053 -0.3501,0.159 -0.0938,0.106 -0.1406,0.2368 -0.1406,0.3923 0,0.1529 0.0462,0.2801 0.1387,0.3819 0.0924,0.1019 0.2086,0.1528 0.3484,0.1528 0.1447,0 0.2921,-0.0594 0.4419,-0.1781"/>
  <line class="fil0 str1" x1="32.8268" y1="57.9293" x2="32.8268" y2= "58.9133" />
  <path class="fil0 str1" d="M29.4581 57.1699c0,-0.1641 -0.08,-0.2461 -0.24,-0.2461"/>
  <polyline class="fil0 str1" points="29.2181,56.9238 29.1021,56.9238 29.1021,57.4158 29.2181,57.4158 "/>
  <path class="fil0 str1" d="M29.2181 57.4158c0.075,0 0.1338,-0.0211 0.1763,-0.0635 0.0422,-0.0424 0.0637,-0.1033 0.0637,-0.1824"/>
  <polyline class="fil0 str1" points="30.5069,58.9515 29.4981,58.9515 29.1021,58.0394 29.1021,58.9515 28.218,58.9515 28.218,56.1773 29.3755,56.1773 "/>
  <path class="fil0 str1" d="M29.3755 56.1773c0.2722,0 0.4971,0.089 0.6743,0.2672 0.1774,0.1781 0.266,0.4044 0.266,0.6786 0,0.382 -0.1474,0.6292 -0.442,0.7424"/>
  <line class="fil0 str1" x1="29.8738" y1="57.8655" x2="30.5069" y2= "58.9515" />
  <polygon class="fil0 str1" points="27.5052,58.9515 25.8532,58.9515 25.8532,56.1773 27.4827,56.1773 27.4827,56.9238 26.7335,56.9238 26.7335,57.1911 27.4153,57.1911 27.4153,57.9165 26.7335,57.9165 26.7335,58.1709 27.5052,58.1709 "/>
  <polygon class="fil0 str1" points="25.2228,58.9515 24.3987,58.9515 24.2489,57.4965 23.8665,58.9515 23.3271,58.9515 22.9375,57.4965 22.7913,58.9515 21.9672,58.9515 22.3681,56.1773 23.2486,56.1773 23.5969,57.5432 23.9453,56.1773 24.8181,56.1773 "/>
  <path class="fil0 str1" d="M20.5053 57.1699c0,-0.1641 -0.08,-0.2461 -0.2398,-0.2461"/>
  <polyline class="fil0 str1" points="20.2655,56.9238 20.1493,56.9238 20.1493,57.4158 20.2655,57.4158 "/>
  <path class="fil0 str1" d="M20.2655 57.4158c0.0749,0 0.1336,-0.0211 0.1761,-0.0635 0.0424,-0.0424 0.0637,-0.1033 0.0637,-0.1824"/>
  <polyline class="fil0 str1" points="21.5543,58.9515 20.5453,58.9515 20.1493,58.0394 20.1493,58.9515 19.2652,58.9515 19.2652,56.1773 20.4229,56.1773 "/>
  <path class="fil0 str1" d="M20.4229 56.1773c0.2722,0 0.4969,0.089 0.6743,0.2672 0.1772,0.1781 0.2658,0.4044 0.2658,0.6786 0,0.382 -0.1473,0.6292 -0.4418,0.7424"/>
  <line class="fil0 str1" x1="20.9213" y1="57.8655" x2="21.5543" y2= "58.9515" />
  <polygon class="fil0 str1" points="18.5525,58.9515 16.9004,58.9515 16.9004,56.1773 18.5299,56.1773 18.5299,56.9238 17.7807,56.9238 17.7807,57.1911 18.4625,57.1911 18.4625,57.9165 17.7807,57.9165 17.7807,58.1709 18.5525,58.1709 "/>
  <path class="fil0 str1" d="M15.4008 57.1444c0,-0.0622 -0.02,-0.1146 -0.0598,-0.1571 -0.0402,-0.0422 -0.0887,-0.0635 -0.1462,-0.0635"/>
  <polyline class="fil0 str1" points="15.1949,56.9238 14.9963,56.9238 14.9963,57.4118 15.1574,57.4118 "/>
  <path class="fil0 str1" d="M15.1574 57.4118c0.0749,0 0.1343,-0.0243 0.1781,-0.0724 0.0435,-0.0479 0.0653,-0.113 0.0653,-0.1951"/>
  <path class="fil0 str1" d="M16.2437 57.1741c0,0.2828 -0.0724,0.5105 -0.2166,0.6829 -0.1441,0.1727 -0.3346,0.2588 -0.5712,0.2588"/>
  <polyline class="fil0 str1" points="15.4559,58.1158 14.9963,58.1158 14.9963,58.9515 14.116,58.9515 14.116,56.1773 15.3108,56.1773 "/>
  <path class="fil0 str1" d="M15.3108 56.1773c0.2723,0 0.4959,0.0933 0.6707,0.2797 0.1749,0.1868 0.2622,0.4257 0.2622,0.717"/>
  <path class="fil0 str1" d="M13.3657 57.857c0,0.3762 -0.0949,0.6619 -0.2846,0.857 -0.1898,0.1952 -0.4683,0.2928 -0.8356,0.2928 -0.3545,0 -0.6268,-0.089 -0.8166,-0.2673 -0.2048,-0.1923 -0.3071,-0.4864 -0.3071,-0.8825"/>
  <polyline class="fil0 str1" points="11.1218,57.857 11.1218,56.1773 11.9945,56.1773 11.9945,57.7384 "/>
  <path class="fil0 str1" d="M11.9945 57.7384c0,0.1555 0.0214,0.2622 0.0638,0.3202 0.0425,0.0579 0.1049,0.087 0.1872,0.087 0.0875,0 0.1504,-0.0278 0.1892,-0.0828 0.0387,-0.0552 0.0581,-0.1633 0.0581,-0.3244"/>
  <polyline class="fil0 str1" points="12.4928,57.7384 12.4928,56.1773 13.3657,56.1773 13.3657,57.857 "/>
  <path class="fil0 str1" d="M10.4427 58.0184c0,0.2969 -0.098,0.5366 -0.294,0.7189 -0.1962,0.1825 -0.4515,0.2738 -0.7662,0.2738 -0.2047,0 -0.422,-0.0467 -0.6516,-0.1402 -0.075,-0.0309 -0.17,-0.0776 -0.2849,-0.14"/>
  <line class="fil0 str1" x1="8.4459" y1="58.7309" x2="8.7232" y2= "57.9588" />
  <path class="fil0 str1" d="M8.7232 57.9588c0.1073,0.0963 0.2104,0.1676 0.309,0.2143 0.0987,0.0466 0.1955,0.0701 0.2904,0.0701 0.0649,0 0.1179,-0.0149 0.1592,-0.0446 0.0411,-0.0297 0.0617,-0.0687 0.0617,-0.1168 0,-0.0677 -0.0861,-0.123 -0.2584,-0.1654 -0.2323,-0.0595 -0.3934,-0.1216 -0.4832,-0.1866 -0.1749,-0.1273 -0.2623,-0.3296 -0.2623,-0.6067 0,-0.2885 0.0962,-0.5246 0.2885,-0.7084 0.1922,-0.1839 0.4421,-0.2755 0.7492,-0.2755 0.1473,0 0.2798,0.0182 0.3971,0.0551 0.1174,0.0365 0.2498,0.1017 0.397,0.195"/>
  <line class="fil0 str1" x1="10.3714" y1="56.3893" x2="10.1242" y2= "57.0935" />
  <path class="fil0 str1" d="M10.1242 57.0935c-0.1573,-0.1414 -0.3233,-0.2121 -0.4981,-0.2121 -0.1349,0 -0.2023,0.0467 -0.2023,0.14 0,0.0651 0.0874,0.1201 0.2622,0.1654 0.2347,0.0622 0.3985,0.1287 0.4909,0.1995 0.1773,0.1357 0.2659,0.3464 0.2659,0.6321"/>
  <polygon class="fil0 str1" points="44.8263,51.9266 44.8263,55.3346 43.1518,55.3346 "/>
  <path class="fil2" d="M44.8249 58.0192c0,0.2969 -0.0979,0.5366 -0.2941,0.7189 -0.196,0.1825 -0.4513,0.2738 -0.766,0.2738 -0.2047,0 -0.4221,-0.0467 -0.6518,-0.1401 -0.0749,-0.031 -0.17,-0.0776 -0.2847,-0.14l0.2771 -0.7721c0.1074,0.0963 0.2104,0.1675 0.309,0.2142 0.0989,0.0466 0.1956,0.0702 0.2905,0.0702 0.0651,0 0.1181,-0.0149 0.1593,-0.0446 0.0411,-0.0297 0.0617,-0.0687 0.0617,-0.1168 0,-0.0677 -0.0862,-0.123 -0.2585,-0.1654 -0.2323,-0.0595 -0.3934,-0.1215 -0.4833,-0.1866 -0.1749,-0.1273 -0.2622,-0.3296 -0.2622,-0.6067 0,-0.2886 0.096,-0.5247 0.2884,-0.7084 0.1924,-0.1839 0.4421,-0.2755 0.7492,-0.2755 0.1475,0 0.2798,0.0183 0.3972,0.0551 0.1173,0.0365 0.2496,0.1017 0.3971,0.195l-0.2475 0.7042c-0.1573,-0.1414 -0.3232,-0.212 -0.4981,-0.212 -0.1348,0 -0.2022,0.0466 -0.2022,0.14 0,0.065 0.0873,0.1201 0.2622,0.1654 0.2347,0.0622 0.3983,0.1286 0.4909,0.1995 0.1773,0.1357 0.2658,0.3464 0.2658,0.6321zm-3.4812 -0.4497l0 0c0,-0.1641 -0.0405,-0.2976 -0.1217,-0.4009 -0.0811,-0.1033 -0.1841,-0.1549 -0.309,-0.1549 -0.1275,0 -0.233,0.053 -0.3166,0.1592 -0.0836,0.106 -0.1255,0.2398 -0.1255,0.4007 0,0.1613 0.0419,0.2935 0.1255,0.3968 0.0836,0.1032 0.1892,0.1549 0.3166,0.1549 0.1249,0 0.2279,-0.0517 0.309,-0.1549 0.0812,-0.1033 0.1217,-0.2368 0.1217,-0.4009zm0.899 0.0041l0 0c0,0.4299 -0.1222,0.7778 -0.367,1.0438 -0.2447,0.2658 -0.5658,0.3986 -0.9627,0.3986 -0.3973,0 -0.7181,-0.1328 -0.9627,-0.3986 -0.2449,-0.266 -0.3673,-0.6139 -0.3673,-1.0438 0,-0.4326 0.1224,-0.7819 0.3673,-1.0477 0.2445,-0.2658 0.5654,-0.3987 0.9627,-0.3987 0.3969,0 0.7179,0.1329 0.9627,0.3987 0.2448,0.2658 0.367,0.6151 0.367,1.0477zm-4.2003 0.0045l0 0c0,-0.1697 -0.0432,-0.302 -0.1294,-0.3968 -0.0862,-0.0947 -0.2055,-0.142 -0.3577,-0.142l-0.1013 0 0 1.0817 0.0826 0c0.1598,0 0.2841,-0.0474 0.3726,-0.1422 0.0889,-0.0947 0.1332,-0.2284 0.1332,-0.4007zm0.8803 0.0254l0 0c0,0.4072 -0.1112,0.7338 -0.3334,0.98 -0.2224,0.246 -0.5171,0.369 -0.8841,0.369l-1.1352 0 0 -2.7742 0.9181 0c0.4618,0 0.8191,0.1298 1.0712,0.3903 0.2423,0.2488 0.3634,0.594 0.3634,1.035zm-4.0506 0.3395l0 0 -0.1836 -0.8995 -0.1873 0.8995 0.3709 0zm1.1688 1.0095l0 0 -0.9292 0 -0.0896 -0.3521 -0.6707 0 -0.09 0.3521 -0.9254 0 0.8467 -2.7742 1.0077 0 0.8505 2.7742zm-3.2152 -0.0382l0 0c-0.0773,0.0227 -0.1398,0.0382 -0.1873,0.0468 -0.1523,0.0339 -0.2734,0.051 -0.3634,0.051 -0.3647,0 -0.6693,-0.1344 -0.9141,-0.4031 -0.2447,-0.2687 -0.367,-0.6037 -0.367,-1.0054 0,-0.4072 0.123,-0.753 0.369,-1.0371 0.2462,-0.2842 0.5462,-0.4263 0.901,-0.4263 0.1248,0 0.2561,0.017 0.3934,0.0506 0.0449,0.0114 0.1011,0.0285 0.1685,0.051l0 0.9928c-0.1449,-0.1414 -0.2909,-0.2122 -0.4383,-0.2122 -0.1398,0 -0.2566,0.053 -0.3501,0.159 -0.0938,0.106 -0.1406,0.2367 -0.1406,0.3923 0,0.1529 0.0462,0.2802 0.1387,0.3819 0.0923,0.1018 0.2085,0.1528 0.3483,0.1528 0.1447,0 0.2921,-0.0593 0.4419,-0.178l0 0.9839zm-3.3687 -1.7433l0 0c0,-0.1641 -0.08,-0.2461 -0.2399,-0.2461l-0.116 0 0 0.492 0.116 0c0.0751,0 0.1338,-0.0211 0.1763,-0.0635 0.0422,-0.0424 0.0637,-0.1033 0.0637,-0.1824zm1.0488 1.7816l0 0 -1.0089 0 -0.3959 -0.912 0 0.912 -0.8841 0 0 -2.7742 1.1576 0c0.2721,0 0.497,0.0891 0.6743,0.2673 0.1775,0.178 0.266,0.4044 0.266,0.6786 0,0.382 -0.1474,0.6292 -0.442,0.7424l0.633 1.086zm-3.0016 0l0 0 -1.6521 0 0 -2.7742 1.6295 0 0 0.7466 -0.7492 0 0 0.2672 0.6817 0 0 0.7254 -0.6817 0 0 0.2544 0.7718 0 0 0.7807zm-2.2824 0l0 0 -0.8241 0 -0.1498 -1.455 -0.3823 1.455 -0.5394 0 -0.3896 -1.455 -0.1462 1.455 -0.8241 0 0.4009 -2.7742 0.8805 0 0.3483 1.3659 0.3483 -1.3659 0.8728 0 0.4047 2.7742zm-4.7175 -1.7816l0 0c0,-0.1641 -0.08,-0.2461 -0.2398,-0.2461l-0.1162 0 0 0.492 0.1162 0c0.0749,0 0.1336,-0.0211 0.1761,-0.0635 0.0424,-0.0424 0.0637,-0.1033 0.0637,-0.1824zm1.049 1.7816l0 0 -1.009 0 -0.3959 -0.912 0 0.912 -0.8841 0 0 -2.7742 1.1577 0c0.2721,0 0.4969,0.0891 0.6743,0.2673 0.1773,0.178 0.2658,0.4044 0.2658,0.6786 0,0.382 -0.1473,0.6292 -0.4418,0.7424l0.633 1.086zm-3.0018 0l0 0 -1.6521 0 0 -2.7742 1.6295 0 0 0.7466 -0.7492 0 0 0.2672 0.6818 0 0 0.7254 -0.6818 0 0 0.2544 0.7718 0 0 0.7807zm-3.1516 -1.8071l0 0c0,-0.0623 -0.0201,-0.1146 -0.0598,-0.1572 -0.0401,-0.0422 -0.0887,-0.0634 -0.1462,-0.0634l-0.1985 0 0 0.488 0.1611 0c0.0749,0 0.1342,-0.0243 0.1781,-0.0724 0.0434,-0.0479 0.0654,-0.113 0.0654,-0.195zm0.8428 0.0297l0 0c0,0.2828 -0.0723,0.5105 -0.2166,0.6828 -0.1441,0.1727 -0.3345,0.2589 -0.5712,0.2589l-0.4596 0 0 0.8357 -0.8803 0 0 -2.7742 1.1949 0c0.2724,0 0.496,0.0933 0.6707,0.2798 0.1748,0.1868 0.2621,0.4256 0.2621,0.717zm-2.878 0.6828l0 0c0,0.3763 -0.0949,0.662 -0.2845,0.857 -0.1899,0.1952 -0.4683,0.2928 -0.8356,0.2928 -0.3545,0 -0.6269,-0.089 -0.8167,-0.2672 -0.2048,-0.1924 -0.3071,-0.4864 -0.3071,-0.8826l0 -1.6797 0.8727 0 0 1.5612c0,0.1555 0.0214,0.2622 0.0638,0.3202 0.0426,0.0579 0.1049,0.0869 0.1873,0.0869 0.0874,0 0.1504,-0.0278 0.1892,-0.0828 0.0387,-0.0553 0.0581,-0.1633 0.0581,-0.3244l0 -1.5612 0.8728 0 0 1.6797zm-2.9229 0.1614l0 0c0,0.2969 -0.0981,0.5366 -0.2941,0.7189 -0.1962,0.1825 -0.4515,0.2738 -0.7662,0.2738 -0.2047,0 -0.422,-0.0467 -0.6516,-0.1401 -0.075,-0.031 -0.17,-0.0776 -0.2849,-0.14l0.2772 -0.7721c0.1073,0.0963 0.2104,0.1675 0.309,0.2142 0.0987,0.0466 0.1956,0.0702 0.2905,0.0702 0.0649,0 0.1179,-0.0149 0.1592,-0.0446 0.0411,-0.0297 0.0617,-0.0687 0.0617,-0.1168 0,-0.0677 -0.0862,-0.123 -0.2584,-0.1654 -0.2324,-0.0595 -0.3934,-0.1215 -0.4833,-0.1866 -0.1749,-0.1273 -0.2623,-0.3296 -0.2623,-0.6067 0,-0.2886 0.0961,-0.5247 0.2885,-0.7084 0.1922,-0.1839 0.4421,-0.2755 0.7492,-0.2755 0.1473,0 0.2798,0.0183 0.3971,0.0551 0.1174,0.0365 0.2497,0.1017 0.397,0.195l-0.2473 0.7042c-0.1573,-0.1414 -0.3233,-0.212 -0.4981,-0.212 -0.1349,0 -0.2024,0.0466 -0.2024,0.14 0,0.065 0.0875,0.1201 0.2622,0.1654 0.2347,0.0622 0.3985,0.1286 0.4909,0.1995 0.1772,0.1357 0.266,0.3464 0.266,0.6321zm34.3832 -6.0917l0 0 0 3.4079 -1.6744 0 1.6744 -3.4079z"/>
  <g id="_1977441440992">
   <path class="fil3" d="M52.952 25.4251c0,-7.2187 -5.1985,-13.1056 -11.5726,-13.1056 -1.0375,0 -2.0428,0.1561 -3.0002,0.4487 -0.4861,-6.7187 -5.479,-12.03 -11.534,-12.03 -6.0546,0 -11.0475,5.3113 -11.5336,12.03 -0.9573,-0.2925 -1.9632,-0.4487 -3.0002,-0.4487 -6.3741,0 -11.5733,5.8869 -11.5733,13.1056 0,4.3309 1.8722,8.1819 4.7465,10.5704l0.0961 0.0859 0.3276 0.2638 0.3382 0.2465 0.3486 0.2269 0.111 0.0646c0.0138,0.0087 0.0272,0.018 0.0411,0.0267 0.0004,-0.0007 0.0007,-0.0014 0.0011,-0.0022l0.2031 0.1182 0.3674 0.1885 0.3764 0.1683 0.3833 0.1474 0.3907 0.1262 0.3989 0.1044 0.4064 0.0835 0.4127 0.0594 0.4215 0.0361 0.5493 0.0156 0.9587 0.0279 1.0677 0.0925 1.0521 0.1524 1.0362 0.2097 1.0203 0.2675 1.0001 0.3231 0.9789 0.3759 0.9583 0.4281 0.9338 0.4795 0.9084 0.5275 0.88 0.5739 0.8543 0.62 0.8249 0.6643 0.7942 0.7062 0.7626 0.7478 0.7327 0.7888 0.6974 0.8273 0.6611 0.8625 0.1158 0.167 0.1171 -0.1675 0.6611 -0.8628 0.6974 -0.8265 0.7302 -0.7873 0.7634 -0.7485 0.7949 -0.707 0.826 -0.6643 0.8535 -0.62 0.8814 -0.5739 0.9076 -0.5275 0.9341 -0.4795 0.9572 -0.4281 0.9789 -0.3759 1.0009 -0.3231 1.0205 -0.2675 1.0354 -0.2097 1.0526 -0.1524 1.0669 -0.0925 0.9604 -0.0279 0.5476 -0.0156 0.4217 -0.0361 0.4125 -0.0594 0.4064 -0.0835 0.3992 -0.1044 0.3907 -0.1262 0.3838 -0.1474 0.3764 -0.1683 0.3668 -0.1885 0.3576 -0.2073 0.3478 -0.2277 0.3383 -0.2457 0.3268 -0.2629 0.3149 -0.281 0.3035 -0.2977 0.2908 -0.3141 0.2695 -0.3201c2.1939,-2.3874 3.5626,-5.7406 3.5626,-9.4442z"/>
   <path class="fil0 str2" d="M52.952 25.4251c0,-7.2187 -5.1985,-13.1056 -11.5726,-13.1056 -1.0375,0 -2.0428,0.1561 -3.0002,0.4487 -0.4861,-6.7187 -5.479,-12.03 -11.534,-12.03 -6.0546,0 -11.0475,5.3113 -11.5336,12.03 -0.9573,-0.2925 -1.9632,-0.4487 -3.0002,-0.4487 -6.3741,0 -11.5733,5.8869 -11.5733,13.1056 0,4.3309 1.8722,8.1819 4.7465,10.5704"/>
   <polyline class="fil0 str2" points="5.4847,35.9955 5.5808,36.0813 5.9085,36.3451 6.2467,36.5916 6.5953,36.8185 6.7063,36.8831 "/>
   <path class="fil0 str2" d="M6.7063 36.8831c0.0138,0.0087 0.0272,0.018 0.0411,0.0267 0.0004,-0.0007 0.0007,-0.0014 0.0011,-0.0022"/>
   <polyline class="fil0 str2" points="6.7484,36.9076 6.9515,37.0258 7.3189,37.2143 7.6953,37.3826 8.0786,37.5299 8.4693,37.6561 8.8682,37.7606 9.2746,37.844 9.6873,37.9034 10.1088,37.9395 10.658,37.9551 11.6168,37.983 12.6845,38.0755 13.7365,38.2279 14.7727,38.4375 15.793,38.705 16.7931,39.0281 17.772,39.404 18.7303,39.8321 19.6641,40.3116 20.5725,40.8391 21.4525,41.413 22.3068,42.033 23.1318,42.6972 23.9259,43.4034 24.6885,44.1512 25.4212,44.94 26.1186,45.7673 26.7797,46.6298 26.8955,46.7968 27.0127,46.6293 27.6738,45.7665 28.3712,44.94 29.1014,44.1527 29.8649,43.4042 30.6598,42.6972 31.4857,42.033 32.3393,41.413 33.2206,40.8391 34.1283,40.3116 35.0624,39.8321 36.0195,39.404 36.9985,39.0281 37.9994,38.705 39.0199,38.4375 40.0553,38.2279 41.1079,38.0755 42.1747,37.983 43.1351,37.9551 43.6828,37.9395 44.1045,37.9034 44.517,37.844 44.9233,37.7606 45.3225,37.6561 45.7132,37.5299 46.0971,37.3826 46.4735,37.2143 46.8403,37.0258 47.1979,36.8185 47.5456,36.5908 47.8839,36.3451 48.2107,36.0821 48.5256,35.8012 48.8291,35.5035 49.1199,35.1894 49.3894,34.8692 "/>
   <path class="fil0 str2" d="M49.3894 34.8692c2.1939,-2.3874 3.5626,-5.7406 3.5626,-9.4442"/>
  </g>
  <g id="_1977441442752">
   <path class="fil4" d="M8.9967 20.4171c0.4399,-0.5611 1.0313,-1.0313 1.6683,-1.3498 0.4398,-0.2275 1.274,-0.5763 2.5176,-0.5763 0.7584,0 1.9716,0.1972 2.5935,0.6825 0.3184,0.2578 0.5611,0.6218 0.5611,1.001 0,0.2882 -0.1213,0.5763 -0.3033,0.7735 -0.1062,0.1365 -0.3034,0.3185 -0.7128,0.3185 -0.4095,0 -0.728,-0.1668 -1.1223,-0.2882 -0.4853,-0.1517 -0.8645,-0.182 -1.0617,-0.182 -0.1365,0 -0.455,0.0152 -0.819,0.1517 -0.7735,0.273 -1.8351,1.1223 -1.8351,3.0788 0,0.2275 0,0.8038 0.2124,1.3802 0.1819,0.5157 0.819,1.8351 2.5176,1.8351 0.3185,0 0.6219,-0.0303 1.2134,-0.2426 0.5308,-0.182 0.728,-0.2882 1.0161,-0.2882 0.091,0 0.1972,0.0152 0.3792,0.1061 0.3943,0.182 0.6218,0.5763 0.6218,1.0162 0,0.6066 -0.3792,0.9403 -0.8493,1.2285 -0.5005,0.2882 -1.1375,0.546 -2.4115,0.546 -0.1972,0 -0.7583,0 -1.3194,-0.1213 -0.9859,-0.2124 -1.9413,-0.7432 -2.6238,-1.5167 -0.9706,-1.092 -1.3954,-2.6997 -1.3498,-4.1556 0.0151,-0.5309 0.1213,-2.1233 1.1071,-3.3973z"/>
   <path class="fil4" d="M19.6586 27.9245c-0.0303,0.5763 -0.0606,1.0161 -0.5005,1.3498 -0.273,0.1972 -0.5308,0.2275 -0.6673,0.2275 -0.1213,0 -0.3336,-0.0151 -0.5915,-0.1668 -0.5157,-0.3033 -0.5611,-0.7432 -0.5915,-1.3346l0 -8.3567c-0.0152,-0.5915 -0.0152,-1.1223 0.455,-1.5319 0.091,-0.091 0.364,-0.2882 0.728,-0.2882 0.1062,0 0.3337,0.0152 0.5915,0.1669 0.6218,0.3791 0.5763,1.0919 0.5763,1.3043l0 8.6297z"/>
   <path class="fil4" d="M23.0862 25.9529c0.0455,0.5611 0.1061,0.9858 0.6067,1.274 0.091,0.0455 0.3185,0.1668 0.6067,0.1668 0.2578,0 0.455,-0.0758 0.6673,-0.2123 0.4853,-0.3337 0.5005,-0.7584 0.5157,-1.3347l0 -2.9878c0.0152,-0.5763 0.0455,-1.0465 0.546,-1.3802 0.0758,-0.0607 0.3185,-0.1972 0.637,-0.1972 0.1061,0 0.364,0.0152 0.6218,0.182 0.5611,0.3488 0.546,0.9403 0.5611,1.1526l0 3.549c-0.0151,0.5005 -0.0151,0.9706 -0.182,1.4256 -0.5005,1.3498 -1.9565,2.002 -3.3669,2.002 -1.092,0 -2.3053,-0.4398 -2.9726,-1.3195 -0.2123,-0.273 -0.2882,-0.4853 -0.3488,-0.6066 -0.2123,-0.5309 -0.2275,-0.9858 -0.2427,-1.5622l0 -3.4276c0.0456,-0.5005 0.1062,-0.91 0.546,-1.1981 0.091,-0.0607 0.3337,-0.1972 0.6522,-0.1972 0.1517,0 0.5763,0.0455 0.8645,0.3943 0.2427,0.273 0.2578,0.5763 0.2882,0.9403l0 3.3367z"/>
   <path class="fil4" d="M28.9556 19.5375c0,-0.5763 0.0152,-1.0465 0.5005,-1.4104 0.2882,-0.2124 0.5763,-0.2427 0.7128,-0.2427 0.2275,0 0.455,0.0759 0.637,0.1972 0.4701,0.3185 0.4853,0.7735 0.5005,1.3044l0 2.4721c0.3336,-0.2275 0.9252,-0.6825 1.9716,-0.6825 0.2882,0 0.91,0.0455 1.5773,0.3943 1.4104,0.7432 2.0778,2.2447 2.0778,3.7916 0,0.5763 -0.0758,2.2143 -1.3953,3.3669 -0.1972,0.182 -0.6825,0.5763 -1.3802,0.7584 -0.2882,0.091 -0.5915,0.1061 -0.91,0.1061 -0.2578,0 -0.91,0.0303 -1.5167,-0.4095 -0.182,-0.1213 -0.3792,-0.3184 -0.5308,-0.4853 -0.0152,0.0303 -0.0607,0.1972 -0.1213,0.3185 -0.1972,0.3185 -0.6067,0.5157 -0.9706,0.5157 -0.182,0 -0.5763,-0.0607 -0.8796,-0.4398 -0.273,-0.3488 -0.273,-0.7128 -0.273,-1.1375l0 -8.4174zm3.0636 7.5529l0 0c0.1365,0.091 0.455,0.3033 0.91,0.3033 0.1062,0 0.3792,-0.0151 0.6522,-0.1365 0.9706,-0.4247 1.0313,-1.6077 1.0313,-1.8958 0,-0.2882 -0.0455,-1.1375 -0.8038,-1.6683 -0.1365,-0.091 -0.4247,-0.273 -0.8644,-0.273 -0.1365,0 -0.4399,0.0152 -0.7432,0.182 -0.6067,0.3033 -0.91,0.9706 -0.9555,1.6531 -0.0455,0.7128 0.182,1.4105 0.7735,1.8351z"/>
   <path class="fil4" d="M40.4366 26.1501c0.0758,0.2882 0.1213,0.3791 0.2124,0.5157 0.1819,0.273 0.728,0.8341 1.6531,0.8341 0.3033,0 0.637,-0.0303 1.2133,-0.3184 0.364,-0.182 0.7584,-0.4095 1.1678,-0.4095 0.0759,0 0.3185,0.0151 0.5157,0.1365 0.1365,0.091 0.4246,0.3488 0.4246,0.8342 -0.0151,0.3185 -0.1213,0.6067 -0.6369,1.001 -1.0465,0.7886 -2.548,0.8493 -2.912,0.8493 -0.5309,0 -1.7593,-0.0758 -2.8513,-1.0313 -1.2133,-1.0617 -1.3347,-2.5631 -1.3347,-3.1394 0,-0.4701 0.0759,-1.5621 0.8342,-2.6086 1.0313,-1.4408 2.5328,-1.6229 3.1698,-1.6229 0.5157,0 1.5773,0.1062 2.5783,1.0162 0.6825,0.6067 1.0617,1.3195 1.2285,2.2143 0.0607,0.3185 0.0758,0.6067 0.0758,0.728 0,0.1213 0.0152,0.4853 -0.2578,0.7735 -0.1213,0.1062 -0.2426,0.182 -0.3943,0.2123 -0.1061,0.0303 -0.2427,0.0303 -0.5157,0l-4.1708 0.0152zm3.0333 -1.5925l0 0c-0.0303,-0.1365 -0.0607,-0.273 -0.1061,-0.3943 -0.0607,-0.1972 -0.1972,-0.6218 -0.6977,-0.8796 -0.1213,-0.0607 -0.3792,-0.182 -0.728,-0.182 -0.5763,0 -1.1072,0.3488 -1.3802,0.8494 -0.1213,0.1971 -0.182,0.3943 -0.2275,0.6066l3.1395 0z"/>
  </g>
 </g>
</svg>
